<svg width="120" height="89" viewBox="0 0 120 89" fill="none" xmlns="http://www.w3.org/2000/svg">
<path d="M42.8793 10.3781L41.2137 15.375H29.25C23.5965 15.375 19 19.9715 19 25.625V66.625C19 72.2785 23.5965 76.875 29.25 76.875H90.75C96.4035 76.875 101 72.2785 101 66.625V25.625C101 19.9715 96.4035 15.375 90.75 15.375H78.7863L77.1207 10.3781C76.0797 7.23906 73.1488 5.125 69.8336 5.125H50.1664C46.8512 5.125 43.9203 7.23906 42.8793 10.3781ZM60 30.75C64.0777 30.75 67.9884 32.3699 70.8718 35.2532C73.7551 38.1366 75.375 42.0473 75.375 46.125C75.375 50.2027 73.7551 54.1134 70.8718 56.9968C67.9884 59.8801 64.0777 61.5 60 61.5C55.9223 61.5 52.0116 59.8801 49.1282 56.9968C46.2449 54.1134 44.625 50.2027 44.625 46.125C44.625 42.0473 46.2449 38.1366 49.1282 35.2532C52.0116 32.3699 55.9223 30.75 60 30.75Z" fill="#E6E6E6"/>
<rect x="1.39628" y="83.8963" width="140.606" height="4.38519" rx="2.19259" transform="rotate(-35.867 1.39628 83.8963)" fill="#E6E6E6" stroke="white" stroke-width="2"/>
</svg>
